# xmcd
#
# Track frame offsets:
#	150
#	11547
#	20972
#	28919
#	40140
#	48415
#	58737
#	67409
#	77981
#	89826
#	103998
#	118994
#
# Disc length: 1701 seconds
#
# Revision: 1
# Processed by: cddbd v1.4PL0 Copyright (c) Steve Scherf et al.
# Submitted via: audiograbber 1.82.02
#
DISCID=b906a30c
DTITLE=Roger Miller - King of the Road
DYEAR=1900
DGENRE=Pop
TTITLE0=King of the Road
TTITLE1=Chug-a-lug
TTITLE2=Dang Me
TTITLE3=Husbands and Wives
TTITLE4=In the Summertime
TTITLE5=Engine Engine #9
TTITLE6=Can't Roller Skate in a Buffalo Herd
TTITLE7=Release Me
TTITLE8=Walkin' In the Sunshine
TTITLE9=My Elusive Dreams
TTITLE10=Me and Bobby McGee
TTITLE11=England Swings
EXTD=
EXTT0=
EXTT1=
EXTT2=
EXTT3=
EXTT4=
EXTT5=
EXTT6=
EXTT7=
EXTT8=
EXTT9=
EXTT10=
EXTT11=
PLAYORDER=
